<svg xmlns="http://www.w3.org/2000/svg" viewBox="0 0 512 512" width="100" height="100">
  <style>
    .st0{fill:#4CAF50;}
    .st1{fill:#FFFFFF;}
  </style>
  <circle class="st0" cx="256" cy="256" r="256"/>
  <path class="st1" d="M378.9,254.8l-35.7-19.4c-2.1-1.1-4.7-1.1-6.8,0l-35.7,19.4c-2.1,1.1-3.4,3.3-3.4,5.7v38.9c0,2.4,1.3,4.5,3.4,5.7
    l35.7,19.4c2.1,1.1,4.7,1.1,6.8,0l35.7-19.4c2.1-1.1,3.4-3.3,3.4-5.7v-38.9C382.3,258.1,381,256,378.9,254.8z"/>
  <path class="st1" d="M256,145.3l-85.8,46.6c-2.1,1.1-3.4,3.3-3.4,5.7v93.3c0,2.4,1.3,4.5,3.4,5.7l85.8,46.6c2.1,1.1,4.7,1.1,6.8,0
    l85.8-46.6c2.1-1.1,3.4-3.3,3.4-5.7v-93.3c0-2.4-1.3-4.5-3.4-5.7L262.8,145.3C260.7,144.2,258.1,144.2,256,145.3z"/>
  <text x="256" y="260" text-anchor="middle" font-family="Arial" font-weight="bold" font-size="80" class="st0">E</text>
</svg>
